<svg viewBox="0 0 800 450" xmlns="http://www.w3.org/2000/svg">
  <defs>
    <filter id="soft-shadow" x="-40%" y="-40%" width="180%" height="180%">
      <feDropShadow dx="0" dy="6" stdDeviation="10" flood-color="#0F172A" flood-opacity="0.16"/>
    </filter>
    <filter id="soft-shadow-sm" x="-60%" y="-60%" width="220%" height="220%">
      <feDropShadow dx="0" dy="3" stdDeviation="5" flood-color="#0F172A" flood-opacity="0.14"/>
    </filter>
  </defs>
  <rect width="800" height="450" rx="16" fill="#F1F5F9"/>
  <rect width="800" height="450" rx="16" fill="none" stroke="#E2E8F0" stroke-width="2"/>
  <path d="M0 16 A16 16 0 0 1 16 0 L784 0 A16 16 0 0 1 800 16 L800 44 L0 44 Z" fill="#FFFFFF"/>
  <line x1="0" y1="44" x2="800" y2="44" stroke="#E2E8F0" stroke-width="2"/>
  <circle cx="24" cy="22" r="6" fill="#F87171"/>
  <circle cx="46" cy="22" r="6" fill="#FBBF24"/>
  <circle cx="68" cy="22" r="6" fill="#34D399"/>
  <rect x="100" y="10" width="600" height="24" rx="12" fill="#F1F5F9"/>
  <text x="400.0" y="27" font-family="Arial, Helvetica, sans-serif" font-size="13" fill="#64748B" text-anchor="middle">kayvora-workflows.com</text>
<rect x="107.5" y="165" width="140" height="70" rx="12" fill="#FFFFFF" stroke="#7C3AED" stroke-width="2.5"/><text x="177.5" y="196" font-family="Arial, Helvetica, sans-serif" font-size="12" font-weight="700" fill="#0F172A" text-anchor="middle">New Form</text><text x="177.5" y="212" font-family="Arial, Helvetica, sans-serif" font-size="12" font-weight="700" fill="#0F172A" text-anchor="middle">Submission</text><rect x="282.5" y="165" width="140" height="70" rx="12" fill="#FFFFFF" stroke="#2563EB" stroke-width="2.5"/><text x="352.5" y="196" font-family="Arial, Helvetica, sans-serif" font-size="12" font-weight="700" fill="#0F172A" text-anchor="middle">AI Agent</text><text x="352.5" y="212" font-family="Arial, Helvetica, sans-serif" font-size="12" font-weight="700" fill="#0F172A" text-anchor="middle">Reviews Data</text><rect x="457.5" y="165" width="140" height="70" rx="12" fill="#FFFFFF" stroke="#7C3AED" stroke-width="2.5"/><text x="527.5" y="196" font-family="Arial, Helvetica, sans-serif" font-size="12" font-weight="700" fill="#0F172A" text-anchor="middle">CRM Updated</text><rect x="632.5" y="165" width="140" height="70" rx="12" fill="#FFFFFF" stroke="#2563EB" stroke-width="2.5"/><text x="702.5" y="196" font-family="Arial, Helvetica, sans-serif" font-size="12" font-weight="700" fill="#0F172A" text-anchor="middle">Follow-up</text><text x="702.5" y="212" font-family="Arial, Helvetica, sans-serif" font-size="12" font-weight="700" fill="#0F172A" text-anchor="middle">Email Sent</text><line x1="247.5" y1="200" x2="282.5" y2="200" stroke="#64748B" stroke-width="2" marker-end="url(#arrow)"/><line x1="422.5" y1="200" x2="457.5" y2="200" stroke="#64748B" stroke-width="2" marker-end="url(#arrow)"/><line x1="597.5" y1="200" x2="632.5" y2="200" stroke="#64748B" stroke-width="2" marker-end="url(#arrow)"/><defs><marker id="arrow" markerWidth="10" markerHeight="10" refX="8" refY="3" orient="auto"><path d="M0,0 L0,6 L9,3 z" fill="#64748B"/></marker></defs></svg>