<svg viewBox="0 0 800 450" xmlns="http://www.w3.org/2000/svg"><defs>
    <radialGradient id="glow1" cx="50%" cy="50%" r="50%">
      <stop offset="0%" stop-color="#2563EB" stop-opacity="0.35"/>
      <stop offset="100%" stop-color="#2563EB" stop-opacity="0"/>
    </radialGradient>
    <radialGradient id="glow2" cx="50%" cy="50%" r="50%">
      <stop offset="0%" stop-color="#22D3EE" stop-opacity="0.25"/>
      <stop offset="100%" stop-color="#22D3EE" stop-opacity="0"/>
    </radialGradient>
    <linearGradient id="bgfade" x1="0%" y1="0%" x2="100%" y2="100%">
      <stop offset="0%" stop-color="#F8FAFC"/>
      <stop offset="100%" stop-color="#EEF2FF"/>
    </linearGradient>
    <pattern id="dotgrid" width="26" height="26" patternUnits="userSpaceOnUse">
      <circle cx="2" cy="2" r="1.2" fill="#0F172A" fill-opacity="0.06"/>
    </pattern>
    <filter id="dshadow" x="-60%" y="-60%" width="220%" height="220%">
      <feDropShadow dx="0" dy="14" stdDeviation="16" flood-color="#0F172A" flood-opacity="0.22"/>
    </filter>
    <filter id="chipshadow" x="-80%" y="-80%" width="260%" height="260%">
      <feDropShadow dx="0" dy="5" stdDeviation="8" flood-color="#0F172A" flood-opacity="0.18"/>
    </filter>
  </defs><rect width="800" height="450" fill="url(#bgfade)"/>
  <rect width="800" height="450" fill="url(#dotgrid)"/>
  <circle cx="620" cy="90" r="220" fill="url(#glow1)"/>
  <circle cx="700" cy="380" r="180" fill="url(#glow2)"/><rect x="48" y="46" width="150" height="32" rx="16" fill="#2563EB" fill-opacity="0.12"/>
  <circle cx="66" cy="62" r="4" fill="#2563EB"/>
  <text x="80" y="67" font-family="Arial, Helvetica, sans-serif" font-size="13" font-weight="700" fill="#2563EB" letter-spacing="0.5">AI-POWERED</text>
  <text x="48" y="150" font-family="Arial, Helvetica, sans-serif" font-size="34" font-weight="800" fill="#0F172A">🏗  Construction</text>
  <text x="48" y="178" font-family="Arial, Helvetica, sans-serif" font-size="15" fill="#64748B">General &amp; Specialty Contractors</text><g transform="translate(430,60) rotate(-3)" filter="url(#dshadow)"><rect x="0" y="0" width="260" height="300" rx="16" fill="#FFFFFF"/><rect x="0" y="0" width="260" height="46" rx="16" fill="#2563EB"/><rect x="0" y="30" width="260" height="16" fill="#2563EB"/><circle cx="24" cy="23" r="11" fill="#FFFFFF" fill-opacity="0.9"/><text x="24" y="27" font-family="Arial, Helvetica, sans-serif" font-size="10" font-weight="700" fill="#2563EB" text-anchor="middle">AI</text><text x="44" y="27" font-family="Arial, Helvetica, sans-serif" font-size="12.5" font-weight="700" fill="#FFFFFF">Project Assistant</text><rect x="117.60000000000002" y="66" width="128.39999999999998" height="44" rx="10" fill="#2563EB"/><text x="128.60000000000002" y="82" font-family="Arial, Helvetica, sans-serif" font-size="10.5" fill="#FFFFFF">Need a quote for an</text><text x="128.60000000000002" y="96" font-family="Arial, Helvetica, sans-serif" font-size="10.5" fill="#FFFFFF">addition.</text><rect x="14" y="120" width="128.39999999999998" height="44" rx="10" fill="#F1F5F9"/><text x="25" y="136" font-family="Arial, Helvetica, sans-serif" font-size="10.5" fill="#0F172A">What's the size and</text><text x="25" y="150" font-family="Arial, Helvetica, sans-serif" font-size="10.5" fill="#0F172A">timeline?</text></g><g filter="url(#chipshadow)">
    <rect x="60" y="356" width="155.2" height="56" rx="14" fill="#FFFFFF"/>
  </g>
  <circle cx="86" cy="384" r="14" fill="#22C55E"/>
  <path d="M 79 384 L 84 389 L 94 377" stroke="#FFFFFF" stroke-width="2.4" fill="none" stroke-linecap="round" stroke-linejoin="round"/>
  <text x="108" y="380" font-family="Arial, Helvetica, sans-serif" font-size="15" font-weight="800" fill="#0F172A">+2x</text>
  <text x="108" y="396" font-family="Arial, Helvetica, sans-serif" font-size="10.5" fill="#64748B">Qualified leads</text></svg>