<svg viewBox="0 0 800 450" xmlns="http://www.w3.org/2000/svg">
  <rect width="800" height="450" rx="16" fill="#F1F5F9"/>
  <rect width="800" height="450" rx="16" fill="none" stroke="#E2E8F0" stroke-width="2"/>
  <path d="M0 16 A16 16 0 0 1 16 0 L784 0 A16 16 0 0 1 800 16 L800 44 L0 44 Z" fill="#FFFFFF"/>
  <line x1="0" y1="44" x2="800" y2="44" stroke="#E2E8F0" stroke-width="2"/>
  <circle cx="24" cy="22" r="6" fill="#F87171"/>
  <circle cx="46" cy="22" r="6" fill="#FBBF24"/>
  <circle cx="68" cy="22" r="6" fill="#34D399"/>
  <rect x="100" y="10" width="600" height="24" rx="12" fill="#F1F5F9"/>
  <text x="400.0" y="27" font-family="Arial, Helvetica, sans-serif" font-size="13" fill="#64748B" text-anchor="middle">kayvora-crm.com</text>
<rect x="50.0" y="64" width="163.0" height="70" rx="10" fill="#FFFFFF" stroke="#E2E8F0" stroke-width="2"/><text x="64.0" y="90" font-family="Arial, Helvetica, sans-serif" font-size="11" fill="#64748B">New Inquiries</text><text x="64.0" y="118" font-family="Arial, Helvetica, sans-serif" font-size="20" font-weight="800" fill="#0F172A">15</text><rect x="229.0" y="64" width="163.0" height="70" rx="10" fill="#FFFFFF" stroke="#E2E8F0" stroke-width="2"/><text x="243.0" y="90" font-family="Arial, Helvetica, sans-serif" font-size="11" fill="#64748B">Qualified</text><text x="243.0" y="118" font-family="Arial, Helvetica, sans-serif" font-size="20" font-weight="800" fill="#0F172A">8</text><rect x="408.0" y="64" width="163.0" height="70" rx="10" fill="#FFFFFF" stroke="#E2E8F0" stroke-width="2"/><text x="422.0" y="90" font-family="Arial, Helvetica, sans-serif" font-size="11" fill="#64748B">Est. Scheduled</text><text x="422.0" y="118" font-family="Arial, Helvetica, sans-serif" font-size="20" font-weight="800" fill="#0F172A">6</text><rect x="587.0" y="64" width="163.0" height="70" rx="10" fill="#FFFFFF" stroke="#E2E8F0" stroke-width="2"/><text x="601.0" y="90" font-family="Arial, Helvetica, sans-serif" font-size="11" fill="#64748B">Avg. Deal</text><text x="601.0" y="118" font-family="Arial, Helvetica, sans-serif" font-size="20" font-weight="800" fill="#0F172A">$42K</text><rect x="50" y="150" width="700" height="250" rx="10" fill="#FFFFFF" stroke="#E2E8F0" stroke-width="2"/><text x="70" y="178" font-family="Arial, Helvetica, sans-serif" font-size="11" font-weight="700" fill="#64748B">NAME</text><text x="320" y="178" font-family="Arial, Helvetica, sans-serif" font-size="11" font-weight="700" fill="#64748B">STATUS</text><text x="520" y="178" font-family="Arial, Helvetica, sans-serif" font-size="11" font-weight="700" fill="#64748B">SOURCE</text><line x1="60" y1="190" x2="740" y2="190" stroke="#E2E8F0" stroke-width="1.5"/><text x="70" y="220" font-family="Arial, Helvetica, sans-serif" font-size="13" fill="#0F172A">Harbor Custom Homes</text><rect x="320" y="206" width="81" height="22" rx="11" fill="#22C55E" fill-opacity="0.15"/><text x="330" y="222" font-family="Arial, Helvetica, sans-serif" font-size="11" font-weight="700" fill="#22C55E">Qualified</text><text x="520" y="220" font-family="Arial, Helvetica, sans-serif" font-size="12" fill="#64748B">Website</text><line x1="60" y1="238" x2="740" y2="238" stroke="#F1F5F9" stroke-width="1"/><text x="70" y="266" font-family="Arial, Helvetica, sans-serif" font-size="13" fill="#0F172A">Nguyen Family</text><rect x="320" y="252" width="39" height="22" rx="11" fill="#2563EB" fill-opacity="0.15"/><text x="330" y="268" font-family="Arial, Helvetica, sans-serif" font-size="11" font-weight="700" fill="#2563EB">New</text><text x="520" y="266" font-family="Arial, Helvetica, sans-serif" font-size="12" fill="#64748B">Google Ads</text><line x1="60" y1="284" x2="740" y2="284" stroke="#F1F5F9" stroke-width="1"/><text x="70" y="312" font-family="Arial, Helvetica, sans-serif" font-size="13" fill="#0F172A">Ortiz Renovation</text><rect x="320" y="298" width="116" height="22" rx="11" fill="#F59E0B" fill-opacity="0.15"/><text x="330" y="314" font-family="Arial, Helvetica, sans-serif" font-size="11" font-weight="700" fill="#F59E0B">Est. Scheduled</text><text x="520" y="312" font-family="Arial, Helvetica, sans-serif" font-size="12" fill="#64748B">Referral</text></svg>