<svg viewBox="0 0 800 450" xmlns="http://www.w3.org/2000/svg">
  <defs>
    <filter id="soft-shadow" x="-40%" y="-40%" width="180%" height="180%">
      <feDropShadow dx="0" dy="6" stdDeviation="10" flood-color="#0F172A" flood-opacity="0.16"/>
    </filter>
    <filter id="soft-shadow-sm" x="-60%" y="-60%" width="220%" height="220%">
      <feDropShadow dx="0" dy="3" stdDeviation="5" flood-color="#0F172A" flood-opacity="0.14"/>
    </filter>
  </defs>
  <rect width="800" height="450" rx="16" fill="#F1F5F9"/>
  <rect width="800" height="450" rx="16" fill="none" stroke="#E2E8F0" stroke-width="2"/>
  <path d="M0 16 A16 16 0 0 1 16 0 L784 0 A16 16 0 0 1 800 16 L800 44 L0 44 Z" fill="#FFFFFF"/>
  <line x1="0" y1="44" x2="800" y2="44" stroke="#E2E8F0" stroke-width="2"/>
  <circle cx="24" cy="22" r="6" fill="#F87171"/>
  <circle cx="46" cy="22" r="6" fill="#FBBF24"/>
  <circle cx="68" cy="22" r="6" fill="#34D399"/>
  <rect x="100" y="10" width="600" height="24" rx="12" fill="#F1F5F9"/>
  <text x="400.0" y="27" font-family="Arial, Helvetica, sans-serif" font-size="13" fill="#64748B" text-anchor="middle">kayvora-client.com</text>
<rect x="40" y="70" width="380" height="260" rx="12" fill="#FFFFFF" stroke="#E2E8F0" stroke-width="2" filter="url(#soft-shadow-sm)"/><rect x="60" y="100" width="320" height="14" rx="7" fill="#E2E8F0"/><rect x="60" y="170" width="280" height="14" rx="7" fill="#E2E8F0"/><rect x="60" y="240" width="240" height="14" rx="7" fill="#E2E8F0"/><rect x="470" y="70" width="290" height="340" rx="16" fill="#FFFFFF" stroke="#E2E8F0" stroke-width="2" filter="url(#soft-shadow-sm)"/><rect x="470" y="70" width="290" height="50" rx="16" fill="#2563EB"/><rect x="470" y="104" width="290" height="16" fill="#2563EB"/><circle cx="496" cy="95" r="12" fill="#FFFFFF" fill-opacity="0.9"/><text x="496" y="100" font-family="Arial, Helvetica, sans-serif" font-size="12" font-weight="700" fill="#2563EB" text-anchor="middle">AI</text><text x="518" y="100" font-family="Arial, Helvetica, sans-serif" font-size="14" font-weight="700" fill="#FFFFFF">Project Assistant</text><rect x="561.4" y="145" width="182.6" height="54" rx="12" fill="#2563EB" filter="url(#soft-shadow-sm)"/><text x="575.4" y="164" font-family="Arial, Helvetica, sans-serif" font-size="11.5" fill="#FFFFFF">We need a quote for a home</text><text x="575.4" y="181" font-family="Arial, Helvetica, sans-serif" font-size="11.5" fill="#FFFFFF">addition.</text><rect x="486" y="213" width="176.5" height="71" rx="12" fill="#F1F5F9" filter="url(#soft-shadow-sm)"/><text x="500" y="232" font-family="Arial, Helvetica, sans-serif" font-size="11.5" fill="#0F172A">Happy to help! What's the</text><text x="500" y="249" font-family="Arial, Helvetica, sans-serif" font-size="11.5" fill="#0F172A">approximate size and</text><text x="500" y="266" font-family="Arial, Helvetica, sans-serif" font-size="11.5" fill="#0F172A">timeline?</text><rect x="561.4" y="298" width="182.6" height="54" rx="12" fill="#2563EB" filter="url(#soft-shadow-sm)"/><text x="575.4" y="317" font-family="Arial, Helvetica, sans-serif" font-size="11.5" fill="#FFFFFF">About 400 sq ft, hoping to</text><text x="575.4" y="334" font-family="Arial, Helvetica, sans-serif" font-size="11.5" fill="#FFFFFF">start in 2 months.</text><rect x="486" y="370" width="258" height="26" rx="13" fill="#F1F5F9"/><text x="498" y="388" font-family="Arial, Helvetica, sans-serif" font-size="11" fill="#64748B">Type a message...</text></svg>