<svg viewBox="0 0 800 450" xmlns="http://www.w3.org/2000/svg">
  <defs>
    <filter id="soft-shadow" x="-40%" y="-40%" width="180%" height="180%">
      <feDropShadow dx="0" dy="6" stdDeviation="10" flood-color="#0F172A" flood-opacity="0.16"/>
    </filter>
    <filter id="soft-shadow-sm" x="-60%" y="-60%" width="220%" height="220%">
      <feDropShadow dx="0" dy="3" stdDeviation="5" flood-color="#0F172A" flood-opacity="0.14"/>
    </filter>
  </defs>
  <rect width="800" height="450" fill="none"/>
  <rect x="260" y="20" width="280" height="410" rx="34" fill="#0F172A" filter="url(#soft-shadow)"/>
  <rect x="268" y="28" width="264" height="394" rx="26" fill="#FFFFFF"/>
  <rect x="370.0" y="38" width="60" height="8" rx="4" fill="#0F172A"/>
<rect x="268" y="28" width="264" height="394" rx="26" fill="#FFFFFF"/><rect x="268" y="28" width="264" height="60" rx="26" fill="#F1F5F9"/><rect x="268" y="62" width="264" height="26" fill="#F1F5F9"/><circle cx="400.0" cy="62" r="18" fill="#0F172A"/><text x="400.0" y="67" font-family="Arial, Helvetica, sans-serif" font-size="13" font-weight="700" fill="#FFFFFF" text-anchor="middle">D</text><text x="400.0" y="98" font-family="Arial, Helvetica, sans-serif" font-size="13" font-weight="700" fill="#0F172A" text-anchor="middle">Dispatch AI</text><rect x="284" y="128" width="157.4" height="66" rx="14" fill="#F1F5F9" filter="url(#soft-shadow-sm)"/><text x="296" y="144" font-family="Arial, Helvetica, sans-serif" font-size="11" fill="#0F172A">Your technician Mike is</text><text x="296" y="160" font-family="Arial, Helvetica, sans-serif" font-size="11" fill="#0F172A">on the way, ETA 40</text><text x="296" y="176" font-family="Arial, Helvetica, sans-serif" font-size="11" fill="#0F172A">minutes.</text><rect x="434.0" y="206" width="82.0" height="34" rx="14" fill="#22D3EE" filter="url(#soft-shadow-sm)"/><text x="446.0" y="222" font-family="Arial, Helvetica, sans-serif" font-size="11" fill="#FFFFFF">Thank you!</text><rect x="284" y="252" width="151.6" height="50" rx="14" fill="#F1F5F9" filter="url(#soft-shadow-sm)"/><text x="296" y="268" font-family="Arial, Helvetica, sans-serif" font-size="11" fill="#0F172A">You'll get a text when</text><text x="296" y="284" font-family="Arial, Helvetica, sans-serif" font-size="11" fill="#0F172A">he's 10 minutes out.</text></svg>