<svg viewBox="0 0 800 450" xmlns="http://www.w3.org/2000/svg"><defs>
    <radialGradient id="glow1" cx="50%" cy="50%" r="50%">
      <stop offset="0%" stop-color="#22D3EE" stop-opacity="0.35"/>
      <stop offset="100%" stop-color="#22D3EE" stop-opacity="0"/>
    </radialGradient>
    <radialGradient id="glow2" cx="50%" cy="50%" r="50%">
      <stop offset="0%" stop-color="#22D3EE" stop-opacity="0.25"/>
      <stop offset="100%" stop-color="#22D3EE" stop-opacity="0"/>
    </radialGradient>
    <linearGradient id="bgfade" x1="0%" y1="0%" x2="100%" y2="100%">
      <stop offset="0%" stop-color="#F8FAFC"/>
      <stop offset="100%" stop-color="#EEF2FF"/>
    </linearGradient>
    <pattern id="dotgrid" width="26" height="26" patternUnits="userSpaceOnUse">
      <circle cx="2" cy="2" r="1.2" fill="#0F172A" fill-opacity="0.06"/>
    </pattern>
    <filter id="dshadow" x="-60%" y="-60%" width="220%" height="220%">
      <feDropShadow dx="0" dy="14" stdDeviation="16" flood-color="#0F172A" flood-opacity="0.22"/>
    </filter>
    <filter id="chipshadow" x="-80%" y="-80%" width="260%" height="260%">
      <feDropShadow dx="0" dy="5" stdDeviation="8" flood-color="#0F172A" flood-opacity="0.18"/>
    </filter>
  </defs><rect width="800" height="450" fill="url(#bgfade)"/>
  <rect width="800" height="450" fill="url(#dotgrid)"/>
  <circle cx="620" cy="90" r="220" fill="url(#glow1)"/>
  <circle cx="700" cy="380" r="180" fill="url(#glow2)"/><rect x="48" y="46" width="150" height="32" rx="16" fill="#22D3EE" fill-opacity="0.12"/>
  <circle cx="66" cy="62" r="4" fill="#22D3EE"/>
  <text x="80" y="67" font-family="Arial, Helvetica, sans-serif" font-size="13" font-weight="700" fill="#22D3EE" letter-spacing="0.5">AI-POWERED</text>
  <text x="48" y="150" font-family="Arial, Helvetica, sans-serif" font-size="34" font-weight="800" fill="#0F172A">❄  HVAC</text>
  <text x="48" y="178" font-family="Arial, Helvetica, sans-serif" font-size="15" fill="#64748B">Heating, Ventilation &amp; AC</text><g transform="translate(435,150) rotate(-2)" filter="url(#dshadow)"><rect x="0" y="0" width="340" height="260" rx="14" fill="#FFFFFF"/><rect x="15.0" y="16" width="96.66666666666667" height="50" rx="8" fill="#F1F5F9"/><text x="25.0" y="34" font-family="Arial, Helvetica, sans-serif" font-size="8.5" fill="#64748B">Open Jobs</text><text x="25.0" y="54" font-family="Arial, Helvetica, sans-serif" font-size="15" font-weight="800" fill="#0F172A">12</text><rect x="121.66666666666667" y="16" width="96.66666666666667" height="50" rx="8" fill="#F1F5F9"/><text x="131.66666666666669" y="34" font-family="Arial, Helvetica, sans-serif" font-size="8.5" fill="#64748B">Emergency</text><text x="131.66666666666669" y="54" font-family="Arial, Helvetica, sans-serif" font-size="15" font-weight="800" fill="#0F172A">3</text><rect x="228.33333333333334" y="16" width="96.66666666666667" height="50" rx="8" fill="#F1F5F9"/><text x="238.33333333333334" y="34" font-family="Arial, Helvetica, sans-serif" font-size="8.5" fill="#64748B">Techs</text><text x="238.33333333333334" y="54" font-family="Arial, Helvetica, sans-serif" font-size="15" font-weight="800" fill="#0F172A">5</text><rect x="15" y="82" width="310" height="164" rx="8" fill="#F1F5F9" fill-opacity="0.5"/><text x="30" y="108" font-family="Arial, Helvetica, sans-serif" font-size="11.5" fill="#0F172A">A. Novak - AC Repair</text><rect x="230" y="95" width="58.400000000000006" height="20" rx="10" fill="#22D3EE" fill-opacity="0.15"/><text x="240" y="109" font-family="Arial, Helvetica, sans-serif" font-size="10" font-weight="700" fill="#22D3EE">Urgent</text><text x="30" y="142" font-family="Arial, Helvetica, sans-serif" font-size="11.5" fill="#0F172A">R. Diaz - Maintenance</text><rect x="230" y="129" width="58.400000000000006" height="20" rx="10" fill="#22C55E" fill-opacity="0.15"/><text x="240" y="143" font-family="Arial, Helvetica, sans-serif" font-size="10" font-weight="700" fill="#22C55E">Booked</text></g><g filter="url(#chipshadow)">
    <rect x="60" y="356" width="150" height="56" rx="14" fill="#FFFFFF"/>
  </g>
  <circle cx="86" cy="384" r="14" fill="#22C55E"/>
  <path d="M 79 384 L 84 389 L 94 377" stroke="#FFFFFF" stroke-width="2.4" fill="none" stroke-linecap="round" stroke-linejoin="round"/>
  <text x="108" y="380" font-family="Arial, Helvetica, sans-serif" font-size="15" font-weight="800" fill="#0F172A">-45%</text>
  <text x="108" y="396" font-family="Arial, Helvetica, sans-serif" font-size="10.5" fill="#64748B">Response time</text></svg>