<svg viewBox="0 0 800 450" xmlns="http://www.w3.org/2000/svg">
  <rect width="800" height="450" fill="none"/>
  <rect x="260" y="20" width="280" height="410" rx="34" fill="#0F172A"/>
  <rect x="268" y="28" width="264" height="394" rx="26" fill="#FFFFFF"/>
  <rect x="370.0" y="38" width="60" height="8" rx="4" fill="#0F172A"/>
<rect x="268" y="28" width="264" height="394" rx="26" fill="#FFFFFF"/><rect x="268" y="28" width="264" height="60" rx="26" fill="#F1F5F9"/><rect x="268" y="62" width="264" height="26" fill="#F1F5F9"/><circle cx="400.0" cy="62" r="18" fill="#0F172A"/><text x="400.0" y="67" font-family="Arial, Helvetica, sans-serif" font-size="13" font-weight="700" fill="#FFFFFF" text-anchor="middle">D</text><text x="400.0" y="98" font-family="Arial, Helvetica, sans-serif" font-size="13" font-weight="700" fill="#0F172A" text-anchor="middle">Dispatch AI</text><rect x="284" y="128" width="204" height="36" rx="14" fill="#F1F5F9"/><text x="296" y="146" font-family="Arial, Helvetica, sans-serif" font-size="11" fill="#0F172A">Your technician Mike is on</text><text x="296" y="162" font-family="Arial, Helvetica, sans-serif" font-size="11" fill="#0F172A">the way, ETA 40 minutes.</text><rect x="420.0" y="176" width="96.0" height="20" rx="14" fill="#22D3EE"/><text x="432.0" y="194" font-family="Arial, Helvetica, sans-serif" font-size="11" fill="#FFFFFF">Thank you!</text><rect x="284" y="208" width="204" height="36" rx="14" fill="#F1F5F9"/><text x="296" y="226" font-family="Arial, Helvetica, sans-serif" font-size="11" fill="#0F172A">You'll get a text when</text><text x="296" y="242" font-family="Arial, Helvetica, sans-serif" font-size="11" fill="#0F172A">he's 10 minutes out.</text></svg>