<svg viewBox="0 0 800 450" xmlns="http://www.w3.org/2000/svg">
  <rect width="800" height="450" fill="none"/>
  <rect x="260" y="20" width="280" height="410" rx="34" fill="#0F172A"/>
  <rect x="268" y="28" width="264" height="394" rx="26" fill="#FFFFFF"/>
  <rect x="370.0" y="38" width="60" height="8" rx="4" fill="#0F172A"/>
<rect x="268" y="28" width="264" height="394" rx="26" fill="#0F172A"/><text x="400.0" y="83" font-family="Arial, Helvetica, sans-serif" font-size="13" font-weight="700" fill="#22D3EE" text-anchor="middle" letter-spacing="1">INCOMING CALL</text><circle cx="400.0" cy="148" r="42" fill="#2563EB" fill-opacity="0.25"/><circle cx="400.0" cy="148" r="30" fill="#2563EB"/><text x="400.0" y="156" font-family="Arial, Helvetica, sans-serif" font-size="22" font-weight="700" fill="#FFFFFF" text-anchor="middle">AI</text><text x="400.0" y="213" font-family="Arial, Helvetica, sans-serif" font-size="19" font-weight="700" fill="#FFFFFF" text-anchor="middle">Quote Request</text><text x="400.0" y="235" font-family="Arial, Helvetica, sans-serif" font-size="13" fill="#94A3B8" text-anchor="middle">Auto Policy Inquiry</text><rect x="298" y="251.0" width="4" height="14" rx="2" fill="#22D3EE" fill-opacity="0.8"/><rect x="307" y="250.5" width="4" height="15" rx="2" fill="#22D3EE" fill-opacity="0.8"/><rect x="316" y="252.5" width="4" height="11" rx="2" fill="#22D3EE" fill-opacity="0.8"/><rect x="325" y="245.0" width="4" height="26" rx="2" fill="#22D3EE" fill-opacity="0.8"/><rect x="334" y="251.5" width="4" height="13" rx="2" fill="#22D3EE" fill-opacity="0.8"/><rect x="343" y="253.0" width="4" height="10" rx="2" fill="#22D3EE" fill-opacity="0.8"/><rect x="352" y="251.5" width="4" height="13" rx="2" fill="#22D3EE" fill-opacity="0.8"/><rect x="361" y="245.0" width="4" height="26" rx="2" fill="#22D3EE" fill-opacity="0.8"/><rect x="370" y="252.5" width="4" height="11" rx="2" fill="#22D3EE" fill-opacity="0.8"/><rect x="379" y="253.0" width="4" height="10" rx="2" fill="#22D3EE" fill-opacity="0.8"/><rect x="388" y="254.0" width="4" height="8" rx="2" fill="#22D3EE" fill-opacity="0.8"/><rect x="397" y="246.5" width="4" height="23" rx="2" fill="#22D3EE" fill-opacity="0.8"/><rect x="406" y="252.0" width="4" height="12" rx="2" fill="#22D3EE" fill-opacity="0.8"/><rect x="415" y="250.5" width="4" height="15" rx="2" fill="#22D3EE" fill-opacity="0.8"/><rect x="424" y="255.0" width="4" height="6" rx="2" fill="#22D3EE" fill-opacity="0.8"/><rect x="433" y="248.5" width="4" height="19" rx="2" fill="#22D3EE" fill-opacity="0.8"/><rect x="442" y="253.0" width="4" height="10" rx="2" fill="#22D3EE" fill-opacity="0.8"/><rect x="451" y="245.5" width="4" height="25" rx="2" fill="#22D3EE" fill-opacity="0.8"/><rect x="460" y="255.0" width="4" height="6" rx="2" fill="#22D3EE" fill-opacity="0.8"/><rect x="469" y="251.0" width="4" height="14" rx="2" fill="#22D3EE" fill-opacity="0.8"/><rect x="478" y="253.0" width="4" height="10" rx="2" fill="#22D3EE" fill-opacity="0.8"/><rect x="487" y="254.0" width="4" height="8" rx="2" fill="#22D3EE" fill-opacity="0.8"/><rect x="284" y="288" width="232" height="84" rx="14" fill="#FFFFFF" fill-opacity="0.08"/><text x="298" y="316" font-family="Arial, Helvetica, sans-serif" font-size="12.5" fill="#E2E8F0">AI: What type of coverage are you looking for?</text><text x="298" y="342" font-family="Arial, Helvetica, sans-serif" font-size="12.5" fill="#E2E8F0">Caller: Full coverage for two vehicles.</text><text x="298" y="368" font-family="Arial, Helvetica, sans-serif" font-size="12.5" fill="#E2E8F0">AI: Let me connect you with a licensed agent.</text><circle cx="360.0" cy="390" r="20" fill="#334155"/><circle cx="440.0" cy="390" r="20" fill="#EF4444"/></svg>