<svg viewBox="0 0 800 450" xmlns="http://www.w3.org/2000/svg"><defs>
    <radialGradient id="glow1" cx="50%" cy="50%" r="50%">
      <stop offset="0%" stop-color="#0F172A" stop-opacity="0.35"/>
      <stop offset="100%" stop-color="#0F172A" stop-opacity="0"/>
    </radialGradient>
    <radialGradient id="glow2" cx="50%" cy="50%" r="50%">
      <stop offset="0%" stop-color="#22D3EE" stop-opacity="0.25"/>
      <stop offset="100%" stop-color="#22D3EE" stop-opacity="0"/>
    </radialGradient>
    <linearGradient id="bgfade" x1="0%" y1="0%" x2="100%" y2="100%">
      <stop offset="0%" stop-color="#F8FAFC"/>
      <stop offset="100%" stop-color="#EEF2FF"/>
    </linearGradient>
    <pattern id="dotgrid" width="26" height="26" patternUnits="userSpaceOnUse">
      <circle cx="2" cy="2" r="1.2" fill="#0F172A" fill-opacity="0.06"/>
    </pattern>
    <filter id="dshadow" x="-60%" y="-60%" width="220%" height="220%">
      <feDropShadow dx="0" dy="14" stdDeviation="16" flood-color="#0F172A" flood-opacity="0.22"/>
    </filter>
    <filter id="chipshadow" x="-80%" y="-80%" width="260%" height="260%">
      <feDropShadow dx="0" dy="5" stdDeviation="8" flood-color="#0F172A" flood-opacity="0.18"/>
    </filter>
  </defs><rect width="800" height="450" fill="url(#bgfade)"/>
  <rect width="800" height="450" fill="url(#dotgrid)"/>
  <circle cx="620" cy="90" r="220" fill="url(#glow1)"/>
  <circle cx="700" cy="380" r="180" fill="url(#glow2)"/><rect x="48" y="46" width="150" height="32" rx="16" fill="#0F172A" fill-opacity="0.12"/>
  <circle cx="66" cy="62" r="4" fill="#0F172A"/>
  <text x="80" y="67" font-family="Arial, Helvetica, sans-serif" font-size="13" font-weight="700" fill="#0F172A" letter-spacing="0.5">AI-POWERED</text>
  <text x="48" y="150" font-family="Arial, Helvetica, sans-serif" font-size="34" font-weight="800" fill="#0F172A">⚖  Law Firm</text>
  <text x="48" y="178" font-family="Arial, Helvetica, sans-serif" font-size="15" fill="#64748B">Legal Services</text><g transform="translate(470,25) rotate(-5)" filter="url(#dshadow)"><rect x="0" y="0" width="232" height="400" rx="28" fill="#0F172A"/><rect x="90.0" y="14" width="52" height="7" rx="3.5" fill="#1E293B"/><text x="116.0" y="55" font-family="Arial, Helvetica, sans-serif" font-size="11" font-weight="700" fill="#22D3EE" text-anchor="middle" letter-spacing="1">INCOMING CALL</text><circle cx="116.0" cy="105" r="34" fill="#0F172A" fill-opacity="0.22"/><circle cx="116.0" cy="105" r="24" fill="#0F172A"/><text x="116.0" y="112" font-family="Arial, Helvetica, sans-serif" font-size="17" font-weight="700" fill="#FFFFFF" text-anchor="middle">AI</text><text x="116.0" y="160" font-family="Arial, Helvetica, sans-serif" font-size="16" font-weight="700" fill="#FFFFFF" text-anchor="middle">Prospective Client</text><text x="116.0" y="180" font-family="Arial, Helvetica, sans-serif" font-size="11" fill="#94A3B8" text-anchor="middle">Personal Injury Intake</text><rect x="30" y="200.0" width="4" height="10" rx="2" fill="#22D3EE" fill-opacity="0.75"/><rect x="39" y="201.0" width="4" height="8" rx="2" fill="#22D3EE" fill-opacity="0.75"/><rect x="48" y="195.5" width="4" height="19" rx="2" fill="#22D3EE" fill-opacity="0.75"/><rect x="57" y="197.5" width="4" height="15" rx="2" fill="#22D3EE" fill-opacity="0.75"/><rect x="66" y="199.0" width="4" height="12" rx="2" fill="#22D3EE" fill-opacity="0.75"/><rect x="75" y="199.5" width="4" height="11" rx="2" fill="#22D3EE" fill-opacity="0.75"/><rect x="84" y="195.0" width="4" height="20" rx="2" fill="#22D3EE" fill-opacity="0.75"/><rect x="93" y="195.0" width="4" height="20" rx="2" fill="#22D3EE" fill-opacity="0.75"/><rect x="102" y="200.0" width="4" height="10" rx="2" fill="#22D3EE" fill-opacity="0.75"/><rect x="111" y="195.0" width="4" height="20" rx="2" fill="#22D3EE" fill-opacity="0.75"/><rect x="120" y="198.0" width="4" height="14" rx="2" fill="#22D3EE" fill-opacity="0.75"/><rect x="129" y="195.5" width="4" height="19" rx="2" fill="#22D3EE" fill-opacity="0.75"/><rect x="138" y="198.5" width="4" height="13" rx="2" fill="#22D3EE" fill-opacity="0.75"/><rect x="147" y="199.5" width="4" height="11" rx="2" fill="#22D3EE" fill-opacity="0.75"/><rect x="156" y="198.5" width="4" height="13" rx="2" fill="#22D3EE" fill-opacity="0.75"/><rect x="165" y="201.0" width="4" height="8" rx="2" fill="#22D3EE" fill-opacity="0.75"/><rect x="174" y="197.5" width="4" height="15" rx="2" fill="#22D3EE" fill-opacity="0.75"/><rect x="183" y="200.0" width="4" height="10" rx="2" fill="#22D3EE" fill-opacity="0.75"/><rect x="192" y="199.0" width="4" height="12" rx="2" fill="#22D3EE" fill-opacity="0.75"/><circle cx="84.0" cy="354" r="17" fill="#334155"/><circle cx="148.0" cy="354" r="17" fill="#EF4444"/></g><g filter="url(#chipshadow)">
    <rect x="60" y="356" width="150" height="56" rx="14" fill="#FFFFFF"/>
  </g>
  <circle cx="86" cy="384" r="14" fill="#22C55E"/>
  <path d="M 79 384 L 84 389 L 94 377" stroke="#FFFFFF" stroke-width="2.4" fill="none" stroke-linecap="round" stroke-linejoin="round"/>
  <text x="108" y="380" font-family="Arial, Helvetica, sans-serif" font-size="15" font-weight="800" fill="#0F172A">0</text>
  <text x="108" y="396" font-family="Arial, Helvetica, sans-serif" font-size="10.5" fill="#64748B">Missed calls</text></svg>