<svg viewBox="0 0 800 450" xmlns="http://www.w3.org/2000/svg">
  <defs>
    <filter id="soft-shadow" x="-40%" y="-40%" width="180%" height="180%">
      <feDropShadow dx="0" dy="6" stdDeviation="10" flood-color="#0F172A" flood-opacity="0.16"/>
    </filter>
    <filter id="soft-shadow-sm" x="-60%" y="-60%" width="220%" height="220%">
      <feDropShadow dx="0" dy="3" stdDeviation="5" flood-color="#0F172A" flood-opacity="0.14"/>
    </filter>
  </defs>
  <rect width="800" height="450" rx="16" fill="#F1F5F9"/>
  <rect width="800" height="450" rx="16" fill="none" stroke="#E2E8F0" stroke-width="2"/>
  <path d="M0 16 A16 16 0 0 1 16 0 L784 0 A16 16 0 0 1 800 16 L800 44 L0 44 Z" fill="#FFFFFF"/>
  <line x1="0" y1="44" x2="800" y2="44" stroke="#E2E8F0" stroke-width="2"/>
  <circle cx="24" cy="22" r="6" fill="#F87171"/>
  <circle cx="46" cy="22" r="6" fill="#FBBF24"/>
  <circle cx="68" cy="22" r="6" fill="#34D399"/>
  <rect x="100" y="10" width="600" height="24" rx="12" fill="#F1F5F9"/>
  <text x="400.0" y="27" font-family="Arial, Helvetica, sans-serif" font-size="13" fill="#64748B" text-anchor="middle">kayvora-intake.com</text>
<rect x="220" y="64" width="360" height="276" rx="14" fill="#FFFFFF" stroke="#E2E8F0" stroke-width="2" filter="url(#soft-shadow-sm)"/><text x="250" y="98" font-family="Arial, Helvetica, sans-serif" font-size="15" font-weight="800" fill="#0F172A">Client Intake</text><text x="250" y="120" font-family="Arial, Helvetica, sans-serif" font-size="10.5" font-weight="700" fill="#64748B">FULL NAME</text><rect x="250" y="128" width="300" height="30" rx="8" fill="#F1F5F9"/><text x="262" y="148" font-family="Arial, Helvetica, sans-serif" font-size="12" fill="#0F172A">Michael Torres</text><text x="250" y="174" font-family="Arial, Helvetica, sans-serif" font-size="10.5" font-weight="700" fill="#64748B">CASE TYPE</text><rect x="250" y="182" width="300" height="30" rx="8" fill="#F1F5F9"/><text x="262" y="202" font-family="Arial, Helvetica, sans-serif" font-size="12" fill="#0F172A">Personal Injury</text><text x="250" y="228" font-family="Arial, Helvetica, sans-serif" font-size="10.5" font-weight="700" fill="#64748B">INCIDENT DATE</text><rect x="250" y="236" width="300" height="30" rx="8" fill="#F1F5F9"/><text x="262" y="256" font-family="Arial, Helvetica, sans-serif" font-size="12" fill="#0F172A">07/14/2026</text><text x="250" y="282" font-family="Arial, Helvetica, sans-serif" font-size="10.5" font-weight="700" fill="#64748B">PREFERRED CONTACT</text><rect x="250" y="290" width="300" height="30" rx="8" fill="#F1F5F9"/><text x="262" y="310" font-family="Arial, Helvetica, sans-serif" font-size="12" fill="#0F172A">Phone</text><rect x="250" y="340" width="120" height="34" rx="17" fill="#0F172A"/><text x="310" y="362" font-family="Arial, Helvetica, sans-serif" font-size="12" font-weight="700" fill="#FFFFFF" text-anchor="middle">Submit</text></svg>