<svg viewBox="0 0 800 450" xmlns="http://www.w3.org/2000/svg">
  <rect width="800" height="450" rx="16" fill="#F1F5F9"/>
  <rect width="800" height="450" rx="16" fill="none" stroke="#E2E8F0" stroke-width="2"/>
  <path d="M0 16 A16 16 0 0 1 16 0 L784 0 A16 16 0 0 1 800 16 L800 44 L0 44 Z" fill="#FFFFFF"/>
  <line x1="0" y1="44" x2="800" y2="44" stroke="#E2E8F0" stroke-width="2"/>
  <circle cx="24" cy="22" r="6" fill="#F87171"/>
  <circle cx="46" cy="22" r="6" fill="#FBBF24"/>
  <circle cx="68" cy="22" r="6" fill="#34D399"/>
  <rect x="100" y="10" width="600" height="24" rx="12" fill="#F1F5F9"/>
  <text x="400.0" y="27" font-family="Arial, Helvetica, sans-serif" font-size="13" fill="#64748B" text-anchor="middle">kayvora-calendar.com</text>
<rect x="60" y="80" width="680" height="320" rx="12" fill="#FFFFFF" stroke="#E2E8F0" stroke-width="2"/><text x="128.0" y="104" font-family="Arial, Helvetica, sans-serif" font-size="12" font-weight="700" fill="#64748B" text-anchor="middle">Mon</text><line x1="60.0" y1="116" x2="60.0" y2="400" stroke="#F1F5F9" stroke-width="1"/><text x="264.0" y="104" font-family="Arial, Helvetica, sans-serif" font-size="12" font-weight="700" fill="#64748B" text-anchor="middle">Tue</text><line x1="196.0" y1="116" x2="196.0" y2="400" stroke="#F1F5F9" stroke-width="1"/><text x="400.0" y="104" font-family="Arial, Helvetica, sans-serif" font-size="12" font-weight="700" fill="#64748B" text-anchor="middle">Wed</text><line x1="332.0" y1="116" x2="332.0" y2="400" stroke="#F1F5F9" stroke-width="1"/><text x="536.0" y="104" font-family="Arial, Helvetica, sans-serif" font-size="12" font-weight="700" fill="#64748B" text-anchor="middle">Thu</text><line x1="468.0" y1="116" x2="468.0" y2="400" stroke="#F1F5F9" stroke-width="1"/><text x="672.0" y="104" font-family="Arial, Helvetica, sans-serif" font-size="12" font-weight="700" fill="#64748B" text-anchor="middle">Fri</text><line x1="604.0" y1="116" x2="604.0" y2="400" stroke="#F1F5F9" stroke-width="1"/><line x1="60" y1="116.0" x2="740" y2="116.0" stroke="#F1F5F9" stroke-width="1"/><line x1="60" y1="172.8" x2="740" y2="172.8" stroke="#F1F5F9" stroke-width="1"/><line x1="60" y1="229.6" x2="740" y2="229.6" stroke="#F1F5F9" stroke-width="1"/><line x1="60" y1="286.4" x2="740" y2="286.4" stroke="#F1F5F9" stroke-width="1"/><line x1="60" y1="343.2" x2="740" y2="343.2" stroke="#F1F5F9" stroke-width="1"/><rect x="340.0" y="206.88" width="120.0" height="51.12" rx="8" fill="#7C3AED"/><text x="350.0" y="224.88" font-family="Arial, Helvetica, sans-serif" font-size="11" font-weight="700" fill="#FFFFFF">Showing - Maple St</text><text x="350.0" y="240.88" font-family="Arial, Helvetica, sans-serif" font-size="10" fill="#FFFFFF" fill-opacity="0.9">Sat 10:00 AM</text><rect x="480" y="60" width="260" height="0" fill="none"/><g transform="translate(80,416)"><circle cx="14" cy="0" r="14" fill="#22C55E"/><path d="M 7 0 L 12 5 L 22 -7" stroke="#FFFFFF" stroke-width="2.5" fill="none" stroke-linecap="round" stroke-linejoin="round"/><text x="34" y="5" font-family="Arial, Helvetica, sans-serif" font-size="13" font-weight="700" fill="#0F172A">Booking confirmed and synced to calendar</text></g></svg>