<svg viewBox="0 0 800 450" xmlns="http://www.w3.org/2000/svg">
  <defs>
    <filter id="soft-shadow" x="-40%" y="-40%" width="180%" height="180%">
      <feDropShadow dx="0" dy="6" stdDeviation="10" flood-color="#0F172A" flood-opacity="0.16"/>
    </filter>
    <filter id="soft-shadow-sm" x="-60%" y="-60%" width="220%" height="220%">
      <feDropShadow dx="0" dy="3" stdDeviation="5" flood-color="#0F172A" flood-opacity="0.14"/>
    </filter>
  </defs>
  <rect width="800" height="450" rx="16" fill="#F1F5F9"/>
  <rect width="800" height="450" rx="16" fill="none" stroke="#E2E8F0" stroke-width="2"/>
  <path d="M0 16 A16 16 0 0 1 16 0 L784 0 A16 16 0 0 1 800 16 L800 44 L0 44 Z" fill="#FFFFFF"/>
  <line x1="0" y1="44" x2="800" y2="44" stroke="#E2E8F0" stroke-width="2"/>
  <circle cx="24" cy="22" r="6" fill="#F87171"/>
  <circle cx="46" cy="22" r="6" fill="#FBBF24"/>
  <circle cx="68" cy="22" r="6" fill="#34D399"/>
  <rect x="100" y="10" width="600" height="24" rx="12" fill="#F1F5F9"/>
  <text x="400.0" y="27" font-family="Arial, Helvetica, sans-serif" font-size="13" fill="#64748B" text-anchor="middle">kayvora-crm.com</text>
<rect x="50.0" y="64" width="163.0" height="70" rx="10" fill="#FFFFFF" stroke="#E2E8F0" stroke-width="2" filter="url(#soft-shadow-sm)"/><text x="64.0" y="90" font-family="Arial, Helvetica, sans-serif" font-size="11" fill="#64748B">New Leads</text><text x="64.0" y="118" font-family="Arial, Helvetica, sans-serif" font-size="20" font-weight="800" fill="#0F172A">24</text><rect x="229.0" y="64" width="163.0" height="70" rx="10" fill="#FFFFFF" stroke="#E2E8F0" stroke-width="2" filter="url(#soft-shadow-sm)"/><text x="243.0" y="90" font-family="Arial, Helvetica, sans-serif" font-size="11" fill="#64748B">Showings Booked</text><text x="243.0" y="118" font-family="Arial, Helvetica, sans-serif" font-size="20" font-weight="800" fill="#0F172A">9</text><rect x="408.0" y="64" width="163.0" height="70" rx="10" fill="#FFFFFF" stroke="#E2E8F0" stroke-width="2" filter="url(#soft-shadow-sm)"/><text x="422.0" y="90" font-family="Arial, Helvetica, sans-serif" font-size="11" fill="#64748B">Hot Leads</text><text x="422.0" y="118" font-family="Arial, Helvetica, sans-serif" font-size="20" font-weight="800" fill="#0F172A">5</text><rect x="587.0" y="64" width="163.0" height="70" rx="10" fill="#FFFFFF" stroke="#E2E8F0" stroke-width="2" filter="url(#soft-shadow-sm)"/><text x="601.0" y="90" font-family="Arial, Helvetica, sans-serif" font-size="11" fill="#64748B">Conv. Rate</text><text x="601.0" y="118" font-family="Arial, Helvetica, sans-serif" font-size="20" font-weight="800" fill="#0F172A">38%</text><rect x="50" y="150" width="700" height="250" rx="10" fill="#FFFFFF" stroke="#E2E8F0" stroke-width="2" filter="url(#soft-shadow-sm)"/><text x="70" y="178" font-family="Arial, Helvetica, sans-serif" font-size="11" font-weight="700" fill="#64748B">NAME</text><text x="320" y="178" font-family="Arial, Helvetica, sans-serif" font-size="11" font-weight="700" fill="#64748B">STATUS</text><text x="520" y="178" font-family="Arial, Helvetica, sans-serif" font-size="11" font-weight="700" fill="#64748B">SOURCE</text><line x1="60" y1="190" x2="740" y2="190" stroke="#E2E8F0" stroke-width="1.5"/><text x="70" y="220" font-family="Arial, Helvetica, sans-serif" font-size="13" fill="#0F172A">Jason Reeves</text><rect x="320" y="206" width="39" height="22" rx="11" fill="#F59E0B" fill-opacity="0.15"/><text x="330" y="222" font-family="Arial, Helvetica, sans-serif" font-size="11" font-weight="700" fill="#F59E0B">Hot</text><text x="520" y="220" font-family="Arial, Helvetica, sans-serif" font-size="12" fill="#64748B">Zillow</text><line x1="60" y1="238" x2="740" y2="238" stroke="#F1F5F9" stroke-width="1"/><text x="70" y="266" font-family="Arial, Helvetica, sans-serif" font-size="13" fill="#0F172A">Amara Chen</text><rect x="320" y="252" width="81" height="22" rx="11" fill="#22C55E" fill-opacity="0.15"/><text x="330" y="268" font-family="Arial, Helvetica, sans-serif" font-size="11" font-weight="700" fill="#22C55E">Qualified</text><text x="520" y="266" font-family="Arial, Helvetica, sans-serif" font-size="12" fill="#64748B">Website</text><line x1="60" y1="284" x2="740" y2="284" stroke="#F1F5F9" stroke-width="1"/><text x="70" y="312" font-family="Arial, Helvetica, sans-serif" font-size="13" fill="#0F172A">Tom Ruiz</text><rect x="320" y="298" width="39" height="22" rx="11" fill="#2563EB" fill-opacity="0.15"/><text x="330" y="314" font-family="Arial, Helvetica, sans-serif" font-size="11" font-weight="700" fill="#2563EB">New</text><text x="520" y="312" font-family="Arial, Helvetica, sans-serif" font-size="12" fill="#64748B">Facebook Ad</text></svg>