<svg viewBox="0 0 800 450" xmlns="http://www.w3.org/2000/svg">
  <rect width="800" height="450" rx="16" fill="#F1F5F9"/>
  <rect width="800" height="450" rx="16" fill="none" stroke="#E2E8F0" stroke-width="2"/>
  <path d="M0 16 A16 16 0 0 1 16 0 L784 0 A16 16 0 0 1 800 16 L800 44 L0 44 Z" fill="#FFFFFF"/>
  <line x1="0" y1="44" x2="800" y2="44" stroke="#E2E8F0" stroke-width="2"/>
  <circle cx="24" cy="22" r="6" fill="#F87171"/>
  <circle cx="46" cy="22" r="6" fill="#FBBF24"/>
  <circle cx="68" cy="22" r="6" fill="#34D399"/>
  <rect x="100" y="10" width="600" height="24" rx="12" fill="#F1F5F9"/>
  <text x="400.0" y="27" font-family="Arial, Helvetica, sans-serif" font-size="13" fill="#64748B" text-anchor="middle">kayvora-client.com</text>
<rect x="40" y="70" width="380" height="260" rx="12" fill="#FFFFFF" stroke="#E2E8F0" stroke-width="2"/><rect x="60" y="100" width="320" height="14" rx="7" fill="#E2E8F0"/><rect x="60" y="170" width="280" height="14" rx="7" fill="#E2E8F0"/><rect x="60" y="240" width="240" height="14" rx="7" fill="#E2E8F0"/><rect x="470" y="70" width="290" height="340" rx="16" fill="#FFFFFF" stroke="#E2E8F0" stroke-width="2"/><rect x="470" y="70" width="290" height="50" rx="16" fill="#7C3AED"/><rect x="470" y="104" width="290" height="16" fill="#7C3AED"/><circle cx="496" cy="95" r="12" fill="#FFFFFF" fill-opacity="0.9"/><text x="496" y="100" font-family="Arial, Helvetica, sans-serif" font-size="12" font-weight="700" fill="#7C3AED" text-anchor="middle">AI</text><text x="518" y="100" font-family="Arial, Helvetica, sans-serif" font-size="14" font-weight="700" fill="#FFFFFF">Property Assistant</text><rect x="524" y="145" width="220" height="30" rx="12" fill="#7C3AED"/><text x="538" y="164" font-family="Arial, Helvetica, sans-serif" font-size="11.5" fill="#FFFFFF">Is the Maple St listing still available?</text><rect x="486" y="189" width="220" height="30" rx="12" fill="#F1F5F9"/><text x="500" y="208" font-family="Arial, Helvetica, sans-serif" font-size="11.5" fill="#0F172A">Yes! 3bd/2ba, listed at $549,000. Want to book a showing?</text><rect x="546" y="233" width="198" height="30" rx="12" fill="#7C3AED"/><text x="560" y="252" font-family="Arial, Helvetica, sans-serif" font-size="11.5" fill="#FFFFFF">Yes, Saturday morning works.</text><rect x="486" y="370" width="258" height="26" rx="13" fill="#F1F5F9"/><text x="498" y="388" font-family="Arial, Helvetica, sans-serif" font-size="11" fill="#64748B">Type a message...</text></svg>