<svg viewBox="0 0 800 450" xmlns="http://www.w3.org/2000/svg">
  <rect width="800" height="450" fill="none"/>
  <rect x="260" y="20" width="280" height="410" rx="34" fill="#0F172A"/>
  <rect x="268" y="28" width="264" height="394" rx="26" fill="#FFFFFF"/>
  <rect x="370.0" y="38" width="60" height="8" rx="4" fill="#0F172A"/>
<rect x="268" y="28" width="264" height="394" rx="26" fill="#FFFFFF"/><rect x="268" y="28" width="264" height="60" rx="26" fill="#F1F5F9"/><rect x="268" y="62" width="264" height="26" fill="#F1F5F9"/><circle cx="400.0" cy="62" r="18" fill="#0F172A"/><text x="400.0" y="67" font-family="Arial, Helvetica, sans-serif" font-size="13" font-weight="700" fill="#FFFFFF" text-anchor="middle">I</text><text x="400.0" y="98" font-family="Arial, Helvetica, sans-serif" font-size="13" font-weight="700" fill="#0F172A" text-anchor="middle">Intake AI</text><rect x="284" y="128" width="204" height="52" rx="14" fill="#F1F5F9"/><text x="296" y="146" font-family="Arial, Helvetica, sans-serif" font-size="11" fill="#0F172A">Thanks! Please text a few</text><text x="296" y="162" font-family="Arial, Helvetica, sans-serif" font-size="11" fill="#0F172A">photos of the damage when</text><text x="296" y="178" font-family="Arial, Helvetica, sans-serif" font-size="11" fill="#0F172A">you can.</text><rect x="408.8" y="192" width="107.19999999999999" height="20" rx="14" fill="#22D3EE"/><text x="420.8" y="210" font-family="Arial, Helvetica, sans-serif" font-size="11" fill="#FFFFFF">Sending now.</text><rect x="284" y="224" width="204" height="36" rx="14" fill="#F1F5F9"/><text x="296" y="242" font-family="Arial, Helvetica, sans-serif" font-size="11" fill="#0F172A">Got them - inspector</text><text x="296" y="258" font-family="Arial, Helvetica, sans-serif" font-size="11" fill="#0F172A">scheduled for Thursday 10</text><text x="296" y="274" font-family="Arial, Helvetica, sans-serif" font-size="11" fill="#0F172A">AM.</text></svg>